<svg width="84" height="73" viewBox="0 0 84 73" fill="none" xmlns="http://www.w3.org/2000/svg">
<path d="M81.9 50.02H79.8V34.7076C79.8 32.9087 79.1306 31.1805 77.9494 29.9057L64.8375 15.7549C63.6563 14.48 62.055 13.7576 60.3881 13.7576H54.6V6.95838C54.6 3.20466 51.7781 0.15918 48.3 0.15918H14.7C11.2219 0.15918 8.4 3.20466 8.4 6.95838V13.7576H1.05C0.4725 13.7576 0 14.2675 0 14.8908V17.1572C0 17.7804 0.4725 18.2904 1.05 18.2904H36.75C37.3275 18.2904 37.8 18.8003 37.8 19.4236V21.69C37.8 22.3132 37.3275 22.8232 36.75 22.8232H5.25C4.6725 22.8232 4.2 23.3331 4.2 23.9564V26.2228C4.2 26.8461 4.6725 27.356 5.25 27.356H32.55C33.1275 27.356 33.6 27.8659 33.6 28.4892V30.7556C33.6 31.3789 33.1275 31.8888 32.55 31.8888H1.05C0.4725 31.8888 0 32.3987 0 33.022V35.2884C0 35.9117 0.4725 36.4216 1.05 36.4216H28.35C28.9275 36.4216 29.4 36.9315 29.4 37.5548V39.8212C29.4 40.4445 28.9275 40.9544 28.35 40.9544H8.4V59.0856C8.4 66.5931 14.0437 72.684 21 72.684C27.9563 72.684 33.6 66.5931 33.6 59.0856H50.4C50.4 66.5931 56.0437 72.684 63 72.684C69.9563 72.684 75.6 66.5931 75.6 59.0856H81.9C83.055 59.0856 84 58.0657 84 56.8192V52.2864C84 51.0399 83.055 50.02 81.9 50.02ZM21 65.8848C17.5219 65.8848 14.7 62.8393 14.7 59.0856C14.7 55.3319 17.5219 52.2864 21 52.2864C24.4781 52.2864 27.3 55.3319 27.3 59.0856C27.3 62.8393 24.4781 65.8848 21 65.8848ZM63 65.8848C59.5219 65.8848 56.7 62.8393 56.7 59.0856C56.7 55.3319 59.5219 52.2864 63 52.2864C66.4781 52.2864 69.3 55.3319 69.3 59.0856C69.3 62.8393 66.4781 65.8848 63 65.8848ZM73.5 36.4216H54.6C54.6 36.4216 48.9165 22.7204 54.6 20.5568H60.3881C60.3881 20.5568 73.0773 27.1109 73.5 34.7076C73.5372 35.3759 73.5 36.4216 73.5 36.4216Z" fill="#347CA5"/>
</svg>
