<svg width="111" height="86" viewBox="0 0 111 86" fill="none" xmlns="http://www.w3.org/2000/svg">
<path d="M95.8346 40.68H88.252V36.9281C88.252 32.7822 84.8587 29.4242 80.6693 29.4242H62.318L56.2009 28.3223V43.4561V58.5898H35.1733V74.4473H42.756C42.756 80.6643 47.8478 85.7031 54.13 85.7031C60.4122 85.7031 65.504 80.6643 65.504 74.4473H80.6693C80.6693 80.6643 85.7611 85.7031 92.0433 85.7031C98.3255 85.7031 103.417 80.6643 103.417 74.4473H111V55.6877L95.8346 40.68ZM54.13 80.0752C50.9908 80.0752 48.443 77.5539 48.443 74.4473C48.443 71.3407 50.9908 68.8194 54.13 68.8194C57.2692 68.8194 59.817 71.3407 59.817 74.4473C59.817 77.5539 57.2692 80.0752 54.13 80.0752ZM92.0433 80.0752C88.9041 80.0752 86.3563 77.5539 86.3563 74.4473C86.3563 71.3407 88.9041 68.8194 92.0433 68.8194C95.1825 68.8194 97.7303 71.3407 97.7303 74.4473C97.7303 77.5539 95.1825 80.0752 92.0433 80.0752Z" fill="#347CA5"/>
<path fill-rule="evenodd" clip-rule="evenodd" d="M52.7602 24.6135C53.1266 43.821 41.1589 51.9923 34.3734 53.92C33.924 54.048 33.4451 54.048 32.9957 53.92C26.3216 52.0259 14.6968 44.096 14.6558 25.5704C14.696 23.9695 15.6365 22.5143 17.115 21.7654C27.4442 16.1813 32.4124 14.7334 33.6758 14.7334C34.9391 14.7334 40.3001 16.2739 51.3152 22.3098C52.1872 22.7803 52.7362 23.6555 52.7602 24.6135Z" stroke="#347CA5" stroke-width="7" stroke-linecap="round" stroke-linejoin="round"/>
<path d="M24.9146 34.4178L30.7768 40.0299L42.5012 28.7832" stroke="#347CA5" stroke-width="7" stroke-linecap="round" stroke-linejoin="round"/>
</svg>
