<svg width="88" height="88" viewBox="0 0 88 88" fill="none" xmlns="http://www.w3.org/2000/svg">
<path d="M70.8572 36.572C70.8572 23.317 60.1124 12.5723 46.8574 12.5723L47.8277 13.5425C52.3284 18.0433 54.857 24.1475 54.8573 30.5126V56.8576H44L62.8573 78.5723L81.7145 56.8576H70.8572V36.572ZM62.8573 68.9851L57.7835 63.143H61.1428V30.5126C61.1428 28.8471 61.0096 27.2023 60.7475 25.5892C63.1409 28.6099 64.5717 32.4264 64.5717 36.5712V63.1422H67.931L62.8573 68.9851Z" fill="#347CA5"/>
<path d="M28.2856 53.4277C40.4363 53.4277 50.2856 43.5776 50.2856 31.4277C50.2856 19.277 40.4363 9.42773 28.2856 9.42773C16.1358 9.42773 6.28564 19.277 6.28564 31.4277C6.28564 43.5784 16.1358 53.4277 28.2856 53.4277ZM28.2856 15.7141C36.9507 15.7141 44.0002 22.7635 44.0002 31.4286C44.0002 40.0937 36.9507 47.1431 28.2856 47.1431C19.6206 47.1431 12.5711 40.0937 12.5711 31.4286C12.5711 22.7635 19.6214 15.7141 28.2856 15.7141Z" fill="#347CA5"/>
<path d="M20.4204 27.4616V32.1762H25.9402V33.7952H20.5966V38.5098H25.9402V43.6583H30.6539V38.5098H35.9966V33.7952H30.6539V32.1762H36.1728V27.4616H33.3867L37.1808 23.6666L33.8482 20.334L28.2975 25.8855L22.7468 20.334L19.4133 23.6666L23.2074 27.4616H20.4204ZM12.5718 56.5721H37.7145V62.8576H12.5718V56.5721ZM12.5718 66.0003H47.1436V72.2858H12.5718V66.0003Z" fill="#347CA5"/>
</svg>
